<?xml version="1.0" encoding="utf-8"?>
<!-- Generator: Adobe Illustrator 24.0.1, SVG Export Plug-In . SVG Version: 6.00 Build 0)  -->
<svg version="1.1" xmlns="http://www.w3.org/2000/svg" xmlns:xlink="http://www.w3.org/1999/xlink" x="0px" y="0px"
	 viewBox="0 0 256 256" style="enable-background:new 0 0 256 256;" xml:space="preserve">
<style type="text/css">
	.st0{fill:#3C3C3B;}
</style>
<g id="Layer_2">
	<g>
		<path class="st0" d="M205.51,43.4c0.68,1.21,1.28,2.47,1.76,3.87c0.48,1.39,0.83,2.96,0.77,4.59c-0.06,1.63-0.57,3.3-1.54,4.68
			c-0.96,1.39-2.32,2.51-3.85,3.18c-1.53,0.68-3.23,0.89-4.8,0.8c-1.59-0.1-3.07-0.46-4.47-0.93c-1.4-0.48-2.72-1.1-3.97-1.91
			c-1.24-0.81-2.43-1.79-3.43-3.02c-1-1.21-1.82-2.68-2.21-4.31c-0.43-1.62-0.4-3.35-0.07-5.02c0.64-3.34,2.79-6.55,5.9-8.22
			c1.53-0.83,3.26-1.33,4.98-1.4c1.73-0.07,3.43,0.39,4.88,1.17c1.45,0.78,2.63,1.88,3.6,3C204.04,41.03,204.82,42.19,205.51,43.4z
			 M205.02,43.68c-0.67-1.14-1.7-2.05-2.88-2.57c-1.18-0.53-2.48-0.66-3.65-0.57c-1.17,0.08-2.23,0.36-3.19,0.64
			c-0.96,0.28-1.85,0.67-2.67,1.2c-1.6,1.04-3,2.45-3.75,4.36c-0.37,0.95-0.52,1.97-0.6,3.04c-0.04,1.07,0.03,2.21,0.39,3.35
			c0.36,1.12,0.99,2.22,1.9,3.06c0.91,0.84,2.06,1.44,3.28,1.66c1.22,0.23,2.49,0.05,3.59-0.4c1.11-0.44,2.03-1.13,2.85-1.79
			c0.82-0.69,1.53-1.39,2.23-2.15c0.68-0.76,1.4-1.57,2.03-2.56c0.64-0.98,1.17-2.18,1.3-3.47
			C205.98,46.17,205.69,44.82,205.02,43.68z"/>
	</g>
	<g>
		<path class="st0" d="M244.2,48.2c0.05,1.39,0.01,2.79-0.2,4.25c-0.21,1.46-0.61,3.01-1.41,4.44c-0.8,1.42-2.01,2.67-3.51,3.46
			c-1.49,0.8-3.21,1.17-4.88,1.07c-1.67-0.09-3.27-0.68-4.64-1.48c-1.37-0.81-2.52-1.82-3.55-2.87c-1.02-1.06-1.92-2.22-2.65-3.51
			c-0.73-1.29-1.34-2.71-1.67-4.25c-0.33-1.54-0.39-3.22,0-4.84c0.36-1.63,1.17-3.16,2.23-4.5c2.09-2.68,5.48-4.55,9-4.61
			c1.74-0.03,3.51,0.31,5.07,1.03c1.57,0.72,2.88,1.91,3.8,3.27c0.93,1.36,1.48,2.87,1.83,4.31
			C243.97,45.41,244.14,46.81,244.2,48.2z M243.63,48.23c-0.08-1.32-0.58-2.6-1.39-3.61c-0.81-1.01-1.91-1.72-2.98-2.18
			c-1.08-0.47-2.14-0.7-3.13-0.89c-0.99-0.19-1.96-0.25-2.92-0.16c-1.9,0.19-3.79,0.81-5.33,2.16c-0.76,0.68-1.37,1.52-1.92,2.43
			c-0.52,0.93-0.98,1.98-1.19,3.15c-0.19,1.16-0.14,2.43,0.29,3.59c0.42,1.16,1.17,2.22,2.16,2.98c0.98,0.76,2.2,1.18,3.38,1.28
			c1.19,0.12,2.32-0.08,3.35-0.3c1.04-0.24,2-0.53,2.96-0.89c0.95-0.37,1.96-0.76,2.98-1.35c1.01-0.58,2.04-1.4,2.74-2.49
			C243.35,50.88,243.71,49.54,243.63,48.23z"/>
	</g>
	<g>
		<path class="st0" d="M198.49,59.06c0.64,3.76,1.12,7.53,1.69,11.29l0.75,5.65l0.66,5.66c0.21,1.89,0.53,3.77,0.82,5.65
			c0.27,1.88,0.39,3.77,0.31,5.67c-0.18,3.8-0.61,7.61-1.99,11.47l-0.57,0.03c-1.75-3.71-2.55-7.46-3.11-11.22
			c-0.26-1.88-0.34-3.78-0.25-5.68c0.1-1.9,0.23-3.8,0.26-5.7l0.1-5.69l0.19-5.7c0.2-3.8,0.31-7.6,0.57-11.41L198.49,59.06z"/>
	</g>
	<g>
		<path class="st0" d="M230.62,58.08c0.29,3.8,0.43,7.6,0.65,11.4l0.22,5.7l0.14,5.69c0.04,1.9,0.18,3.8,0.29,5.7
			c0.1,1.9,0.04,3.79-0.22,5.68c-0.53,3.77-1.31,7.53-3.04,11.24l-0.57-0.02c-1.4-3.85-1.86-7.66-2.06-11.46
			c-0.09-1.9,0.01-3.79,0.27-5.68c0.27-1.88,0.58-3.77,0.78-5.65l0.63-5.66l0.71-5.66c0.54-3.77,1.01-7.54,1.62-11.3L230.62,58.08z"
			/>
	</g>
	<g>
		<path class="st0" d="M169.3,157.8c3.62-2.89,6.84-6.27,9.07-10.12c2.26-3.81,3.55-8.1,3.24-12.23c-0.12-2.1-0.54-4.59-0.38-7.22
			c0.1-2.62,0.63-5.21,1.35-7.63c1.46-4.83,3.74-9.52,7.21-13.62c1.73-2.03,3.84-3.86,6.16-5.35c1.15-0.74,2.34-1.38,3.57-1.96
			c0.62-0.29,1.26-0.56,1.96-0.82c0.69-0.26,1.47-0.49,2.18-0.65c1.43-0.34,2.71-0.53,3.96-0.69c1.25-0.16,2.46-0.29,3.67-0.4
			c2.39-0.21,4.67-0.43,7.18-0.56c1.25-0.06,2.55-0.1,3.96-0.05c1.4,0.04,2.93,0.23,4.46,0.6c0.38,0.09,0.77,0.2,1.13,0.31
			c0.35,0.11,0.69,0.21,1.03,0.33c0.69,0.24,1.37,0.5,2.04,0.79c1.35,0.59,2.66,1.27,4,2.19c1.28,0.88,2.46,1.89,3.54,3
			c1.07,1.1,2.02,2.33,2.77,3.39c0.34,0.46,0.85,1.21,1.22,1.85c0.39,0.66,0.73,1.3,1.05,1.92c0.62,1.24,1.14,2.43,1.63,3.61
			c0.48,1.17,0.93,2.34,1.36,3.49l1.21,3.39c0.76,2.21,1.64,4.54,2.28,7.41c1.18,5.27,1.22,10.95,0.67,15.97l-0.2,1.83
			c-0.08,0.64-0.15,1.28-0.25,1.93c-0.18,1.29-0.41,2.57-0.66,3.85c-0.52,2.55-1.2,5.07-1.97,7.49c-0.77,2.42-1.61,4.72-2.43,6.93
			c-0.82,2.2-1.62,4.41-2.56,6.74c-0.93,2.32-2.04,4.8-3.43,7.16c-0.34,0.59-0.69,1.17-1.06,1.74l-0.55,0.85l-0.28,0.43l-0.36,0.51
			c-0.95,1.33-1.87,2.39-2.76,3.38c-1.78,1.97-3.5,3.66-5.22,5.35l-5.12,4.92c-3.39,3.22-6.75,6.47-10.44,9.74
			c-1.84,1.63-3.85,3.29-5.82,4.79c-1.98,1.51-3.98,2.97-6.06,4.35c-1.05,0.69-2.1,1.36-3.21,2.03c-1.08,0.64-2.08,1.24-3.18,1.87
			c-2.18,1.24-4.46,2.44-6.83,3.52c-2.38,1.08-4.79,2.05-7.42,2.87c-2.63,0.81-5.27,1.39-7.81,1.81c-5.1,0.84-9.98,1.18-14.85,1.4
			c-4.87,0.2-9.74,0.22-14.61-0.06c-2.43-0.13-4.9-0.31-7.35-0.57l-6.96-0.73l-13.86-1.38c-4.6-0.43-9.19-0.77-13.74-1.09
			c-4.56-0.32-9.09-0.53-13.59-0.56c-4.51-0.03-8.99,0.12-13.45,0.5c-4.5,0.38-8.77,1.07-13.6,1.73
			c-4.79,0.64-10.04,1.09-15.37,0.23c-2.66-0.43-5.3-1.18-7.78-2.27c-2.48-1.11-4.79-2.48-6.84-4.13c-2.07-1.63-3.9-3.47-5.56-5.44
			c-1.64-1.97-3.12-4.15-4.28-6.46c-1.19-2.3-2.07-4.75-2.68-7.19c-0.64-2.44-0.94-4.88-1.21-7.23c-0.25-2.33-0.55-4.66-0.67-7.13
			c-0.12-2.44-0.01-5.09,0.84-7.55c0.85-2.45,2.26-4.6,3.99-6.36c1.74-1.76,3.78-3.13,5.93-4.14l0.42,0.74
			c-3.98,2.22-7.29,5.85-8.45,10.27c-0.59,2.19-0.57,4.5-0.32,6.78c0.26,2.29,0.7,4.58,1.1,6.88c0.79,4.58,1.93,9.1,4.27,13.08
			c2.28,3.98,5.52,7.41,9.23,10.1c1.86,1.34,3.88,2.46,6,3.3c2.13,0.83,4.36,1.39,6.64,1.66c4.56,0.57,9.19,0.02,13.76-0.79
			c4.57-0.84,9.19-1.74,13.85-2.28c4.66-0.55,9.34-0.86,14.02-0.98c18.75-0.48,37.39,1.94,55.94,3.03c4.64,0.15,9.3,0.12,13.94-0.11
			c4.64-0.24,9.28-0.61,13.83-1.4c9.15-1.39,17.42-5.96,25.15-11.01c3.85-2.58,7.58-5.34,11.06-8.39c3.5-3.05,6.88-6.27,10.29-9.45
			c3.39-3.2,6.84-6.37,9.98-9.74c0.78-0.85,1.53-1.71,2.18-2.62c0.65-0.92,1.28-1.9,1.86-2.88c1.17-1.97,2.15-4.05,3.06-6.19
			c0.91-2.13,1.75-4.31,2.61-6.48c0.85-2.17,1.69-4.34,2.43-6.53c1.51-4.38,2.51-8.88,3.01-13.5c0.58-4.59,0.6-9.22-0.3-13.73
			c-0.43-2.23-1.16-4.44-1.86-6.67c-0.7-2.23-1.41-4.43-2.23-6.6c-0.83-2.16-1.7-4.29-3-6.15c-1.26-1.92-2.76-3.62-4.6-4.94
			c-1.82-1.3-3.94-2.26-6.11-2.87c-2.17-0.59-4.48-0.65-6.79-0.63c-2.31,0.03-4.65,0.14-6.97,0.25c-2.31,0.13-4.65,0.25-6.88,0.69
			c-2.19,0.45-4.31,1.44-6.29,2.57c-1.97,1.16-3.75,2.61-5.32,4.28c-3.13,3.34-5.43,7.45-6.98,11.78c-0.77,2.17-1.34,4.41-1.54,6.68
			c-0.24,2.28-0.01,4.58-0.04,6.96c-0.02,4.8-1.83,9.44-4.53,13.32c-2.73,3.89-6.32,7.07-10.22,9.7L169.3,157.8z"/>
	</g>
</g>
<g id="Layer_3">
	<g>
		<path class="st0" d="M118.11,188.12c3.5-2.27,6.86-4.74,10.06-7.38c3.17-2.68,6.19-5.53,8.99-8.58c2.77-3.08,5.34-6.32,7.68-9.71
			c2.31-3.42,4.4-6.97,6.23-10.65c1.85-3.67,3.35-7.5,4.6-11.4c1.24-3.9,2.25-7.87,2.84-11.91c0.62-4.03,0.92-8.1,0.88-12.17
			c-0.04-4.06-0.45-8.12-1.18-12.1c-1.42-7.98-4.43-15.62-8.56-22.55c-4.13-6.88-9.76-12.82-16.37-17.36
			c-6.61-4.53-14.14-7.73-22-9.47c-7.87-1.71-16.05-2.1-24.09-1.09c-8.05,0.96-15.94,3.3-23.31,6.79
			c-7.4,3.46-14.17,8.17-19.83,14.08c-5.65,5.88-10.19,12.89-13.11,20.55c-2.84,7.68-4.11,16.01-3.24,24.19
			c0.9,8.14,3.72,16.17,8.58,22.8c0.53,0.88,1.26,1.61,1.91,2.4l1,1.17c0.33,0.39,0.66,0.79,1.05,1.12l2.24,2.11l0.56,0.53
			c0.2,0.16,0.41,0.31,0.61,0.47l1.23,0.93l1.22,0.93l0.61,0.46l0.66,0.4l2.63,1.58c0.43,0.28,0.9,0.49,1.36,0.7l1.39,0.65
			c0.93,0.42,1.84,0.91,2.82,1.2l2.9,1.01c0.97,0.33,1.98,0.51,2.97,0.77c1.97,0.57,4.02,0.74,6.04,1.07
			c4.08,0.32,8.2,0.37,12.24-0.28c4.07-0.47,8-1.68,11.84-3.01l2.8-1.23c0.93-0.41,1.88-0.79,2.76-1.32c1.78-1,3.61-1.9,5.24-3.1
			l1.26-0.85l0.63-0.43l0.59-0.48l2.34-1.92c0.77-0.65,1.45-1.4,2.18-2.1l1.08-1.06l0.98-1.15c2.69-3,4.83-6.45,6.54-10.05
			c0.39-0.92,0.88-1.8,1.19-2.75l0.98-2.83c0.49-1.93,1.04-3.84,1.24-5.82c0.57-3.91,0.6-7.92-0.18-11.77
			c-0.76-3.84-2.05-7.59-4.06-10.95c-1.97-3.34-4.59-6.23-7.69-8.5c-6.21-4.56-14.19-6.58-21.94-5.93
			c-3.88,0.34-7.7,1.31-11.29,2.82c-1.82,0.7-3.52,1.69-5.21,2.64c-0.8,0.54-1.62,1.05-2.39,1.62c-0.74,0.61-1.51,1.19-2.23,1.82
			c-5.74,5.09-9.48,12.42-9.8,19.92c-0.18,3.74,0.51,7.47,2.01,10.85c1.51,3.43,3.85,6.21,6.82,8.33c3,2.04,6.57,3.29,10.26,3.66
			c3.7,0.33,7.47-0.2,11.01-1.43c0.86-0.37,1.75-0.69,2.59-1.1l1.25-0.66l0.63-0.33l0.58-0.38l1.16-0.75l1.09-0.86
			c0.37-0.27,0.72-0.58,1.04-0.9c0.33-0.32,0.68-0.62,0.99-0.96c1.25-1.35,2.34-2.83,3.24-4.43c0.84-1.62,1.51-3.32,1.92-5.09
			c0.36-1.77,0.49-3.57,0.36-5.35c-0.19-1.77-0.65-3.5-1.34-5.13c-0.77-1.63-1.7-3.06-2.94-4.27c-1.22-1.21-2.69-2.2-4.31-2.9
			c-3.26-1.37-7.05-1.58-10.59-0.7c-1.77,0.46-3.48,1.19-5.05,2.12c-1.54,0.92-2.93,2.11-4.05,3.5c-2.26,2.77-3.47,6.39-3.05,9.85
			c0.19,1.71,0.81,3.4,1.73,4.82c0.91,1.41,2.23,2.53,3.78,3.28c3.1,1.56,7.01,1.4,10.3-0.08c1.67-0.76,3.09-1.83,4.22-3.2
			c0.55-0.69,1.01-1.44,1.38-2.24c0.34-0.81,0.62-1.64,0.74-2.5c0.25-1.71,0-3.48-0.8-5c-0.74-1.51-2.06-2.66-3.67-3.28
			c-1.6-0.65-3.46-0.7-5.2-0.27c-1.74,0.47-3.4,1.36-4.52,2.72c-1.15,1.33-1.81,3.09-1.72,4.8c0.04,0.86,0.27,1.69,0.67,2.45
			c0.37,0.75,0.95,1.37,1.66,1.83c2.84,1.95,7.72,0.59,8.98-2.83c0.33-0.82,0.42-1.74,0.26-2.59c-0.18-0.86-0.59-1.67-1.24-2.23
			c-1.32-1.15-3.47-1.27-5.1-0.36c-0.81,0.43-1.49,1.11-1.88,1.95c-0.39,0.83-0.47,1.81-0.15,2.67c0.3,0.87,1.02,1.55,1.93,1.8
			c0.9,0.26,1.93,0.13,2.78-0.35l0.29,0.49c-0.94,0.6-2.13,0.84-3.26,0.58c-1.13-0.23-2.16-1.08-2.61-2.17
			c-0.48-1.08-0.45-2.36-0.01-3.44c0.43-1.1,1.27-2.01,2.27-2.61c1.96-1.2,4.73-1.28,6.69,0.26c1.99,1.57,2.53,4.37,1.73,6.63
			c-0.74,2.31-2.75,4.07-4.95,4.83c-2.22,0.8-4.85,0.72-7.01-0.56c-1.07-0.62-2.01-1.55-2.63-2.64c-0.62-1.06-0.99-2.28-1.1-3.51
			c-0.21-2.47,0.65-4.92,2.16-6.81c0.75-0.95,1.67-1.77,2.69-2.4c1.01-0.62,2.09-1.13,3.24-1.46c2.29-0.64,4.81-0.68,7.14,0.16
			c1.16,0.41,2.27,1.01,3.24,1.81c0.96,0.8,1.78,1.81,2.38,2.9c1.22,2.15,1.68,4.71,1.4,7.13c-0.12,1.22-0.47,2.4-0.91,3.53
			c-0.47,1.12-1.07,2.18-1.8,3.15c-1.45,1.92-3.42,3.48-5.53,4.52c-4.22,2.1-9.48,2.48-13.98,0.4c-2.24-1.01-4.27-2.63-5.69-4.71
			c-1.41-2.05-2.3-4.37-2.65-6.81c-0.7-4.87,0.86-9.84,3.8-13.6c1.47-1.89,3.28-3.5,5.3-4.76c2-1.23,4.15-2.19,6.43-2.82
			c4.55-1.21,9.53-1.07,14.03,0.73c2.24,0.92,4.34,2.25,6.11,3.95c1.79,1.68,3.21,3.78,4.22,5.94c0.98,2.2,1.62,4.55,1.89,6.94
			c0.21,2.39,0.06,4.79-0.41,7.13c-0.5,2.32-1.35,4.55-2.43,6.64c-1.13,2.07-2.51,3.98-4.09,5.71c-0.4,0.43-0.83,0.82-1.25,1.23
			c-0.41,0.42-0.85,0.81-1.31,1.16l-1.37,1.09l-1.46,0.97l-0.73,0.48l-0.76,0.41l-1.52,0.82c-1.03,0.51-2.11,0.93-3.17,1.38
			c-4.33,1.59-9.03,2.2-13.67,1.79c-4.63-0.47-9.2-2.04-13.11-4.72c-3.86-2.7-7.04-6.59-8.88-10.84c-1.9-4.27-2.67-9.01-2.4-13.61
			c0.52-9.26,5.17-17.9,11.98-23.82c0.86-0.73,1.77-1.41,2.65-2.11c0.92-0.65,1.88-1.24,2.82-1.86c1.95-1.09,3.9-2.17,5.99-2.96
			c4.13-1.68,8.52-2.74,12.98-3.08c8.9-0.62,18.16,1.73,25.35,7.25c3.59,2.73,6.61,6.22,8.81,10.14c2.21,3.88,3.61,8.18,4.37,12.54
			c0.79,4.37,0.67,8.86-0.05,13.2c-0.29,2.19-0.96,4.29-1.57,6.39l-1.17,3.07c-0.37,1.03-0.93,1.98-1.39,2.97
			c-1.99,3.88-4.43,7.54-7.42,10.68l-1.09,1.21l-1.19,1.11c-0.81,0.72-1.56,1.5-2.41,2.18l-2.57,1.98l-0.64,0.49l-0.68,0.44
			l-1.37,0.87c-1.78,1.23-3.73,2.14-5.63,3.13c-0.94,0.53-1.94,0.9-2.94,1.31l-2.98,1.21c-4.08,1.3-8.23,2.45-12.5,2.83
			c-4.24,0.57-8.55,0.4-12.78-0.04c-2.1-0.36-4.23-0.58-6.28-1.2c-1.03-0.29-2.08-0.49-3.08-0.85l-3.01-1.1
			c-1.02-0.32-1.96-0.85-2.92-1.3l-1.44-0.7c-0.48-0.23-0.96-0.46-1.41-0.75l-2.73-1.67l-0.68-0.42l-0.64-0.48l-1.27-0.97
			l-1.27-0.97c-0.21-0.16-0.43-0.32-0.63-0.49l-0.58-0.55l-2.32-2.21c-0.4-0.35-0.75-0.76-1.09-1.17l-1.03-1.22
			c-0.67-0.83-1.43-1.59-1.98-2.51c-4.99-6.93-8.03-15.15-9-23.61c-1.02-8.46,0.11-17.12,2.87-25.18
			c2.77-8.07,7.26-15.55,12.99-21.91C47.48,66.09,54.51,60.86,62.14,57c7.62-3.9,15.89-6.71,24.44-7.92
			c8.54-1.21,17.32-1.04,25.8,0.84c8.47,1.83,16.65,5.26,23.78,10.28c7.14,4.99,13.23,11.51,17.64,19.02
			c4.34,7.49,7.39,15.73,8.76,24.25c0.69,4.25,1.08,8.56,0.99,12.86c-0.08,4.3-0.51,8.58-1.27,12.8
			c-1.53,8.44-4.47,16.57-8.52,24.06c-2.04,3.73-4.3,7.35-6.86,10.73c-2.57,3.38-5.37,6.57-8.34,9.57
			c-3.01,2.97-6.22,5.73-9.56,8.29c-3.37,2.53-6.95,4.76-10.6,6.83L118.11,188.12z"/>
	</g>
</g>
</svg>
