<svg id="e4uvZcWND8F1" xmlns="http://www.w3.org/2000/svg" xmlns:xlink="http://www.w3.org/1999/xlink" viewBox="0 0 256 256" shape-rendering="geometricPrecision" text-rendering="geometricPrecision"><g><g><path d="M205.51,43.4c.68,1.21,1.28,2.47,1.76,3.87.48,1.39.83,2.96.77,4.59s-.57,3.3-1.54,4.68c-.96,1.39-2.32,2.51-3.85,3.18-1.53.68-3.23.89-4.8.8-1.59-.1-3.07-.46-4.47-.93-1.4-.48-2.72-1.1-3.97-1.91-1.24-.81-2.43-1.79-3.43-3.02-1-1.21-1.82-2.68-2.21-4.31-.43-1.62-.4-3.35-.07-5.02.64-3.34,2.79-6.55,5.9-8.22c1.53-.83,3.26-1.33,4.98-1.4c1.73-.07,3.43.39,4.88,1.17s2.63,1.88,3.6,3c.98,1.15,1.76,2.31,2.45,3.52Zm-.49.28c-.67-1.14-1.7-2.05-2.88-2.57-1.18-.53-2.48-.66-3.65-.57-1.17.08-2.23.36-3.19.64s-1.85.67-2.67,1.2c-1.6,1.04-3,2.45-3.75,4.36-.37.95-.52,1.97-.6,3.04-.04,1.07.03,2.21.39,3.35.36,1.12.99,2.22,1.9,3.06s2.06,1.44,3.28,1.66c1.22.23,2.49.05,3.59-.4c1.11-.44,2.03-1.13,2.85-1.79.82-.69,1.53-1.39,2.23-2.15.68-.76,1.4-1.57,2.03-2.56.64-.98,1.17-2.18,1.3-3.47.13-1.31-.16-2.66-.83-3.8Z" fill="#3c3c3b"/></g><g><path d="M244.2,48.2c.05,1.39.01,2.79-.2,4.25s-.61,3.01-1.41,4.44c-.8,1.42-2.01,2.67-3.51,3.46-1.49.8-3.21,1.17-4.88,1.07-1.67-.09-3.27-.68-4.64-1.48-1.37-.81-2.52-1.82-3.55-2.87-1.02-1.06-1.92-2.22-2.65-3.51s-1.34-2.71-1.67-4.25-.39-3.22,0-4.84c.36-1.63,1.17-3.16,2.23-4.5c2.09-2.68,5.48-4.55,9-4.61c1.74-.03,3.51.31,5.07,1.03c1.57.72,2.88,1.91,3.8,3.27.93,1.36,1.48,2.87,1.83,4.31s.52,2.84.58,4.23Zm-.57.03c-.08-1.32-.58-2.6-1.39-3.61s-1.91-1.72-2.98-2.18c-1.08-.47-2.14-.7-3.13-.89s-1.96-.25-2.92-.16c-1.9.19-3.79.81-5.33,2.16-.76.68-1.37,1.52-1.92,2.43-.52.93-.98,1.98-1.19,3.15-.19,1.16-.14,2.43.29,3.59.42,1.16,1.17,2.22,2.16,2.98.98.76,2.2,1.18,3.38,1.28c1.19.12,2.32-.08,3.35-.3c1.04-.24,2-.53,2.96-.89.95-.37,1.96-.76,2.98-1.35c1.01-.58,2.04-1.4,2.74-2.49.72-1.07,1.08-2.41,1-3.72Z" fill="#3c3c3b"/></g><g><path d="M198.49,59.06c.64,3.76,1.12,7.53,1.69,11.29l.75,5.65.66,5.66c.21,1.89.53,3.77.82,5.65.27,1.88.39,3.77.31,5.67-.18,3.8-.61,7.61-1.99,11.47l-.57.03c-1.75-3.71-2.55-7.46-3.11-11.22-.26-1.88-.34-3.78-.25-5.68.1-1.9.23-3.8.26-5.7l.1-5.69.19-5.7c.2-3.8.31-7.6.57-11.41l.57-.02Z" fill="#3c3c3b"/></g><g><path d="M230.62,58.08c.29,3.8.43,7.6.65,11.4l.22,5.7.14,5.69c.04,1.9.18,3.8.29,5.7.1,1.9.04,3.79-.22,5.68-.53,3.77-1.31,7.53-3.04,11.24l-.57-.02c-1.4-3.85-1.86-7.66-2.06-11.46-.09-1.9.01-3.79.27-5.68.27-1.88.58-3.77.78-5.65l.63-5.66.71-5.66c.54-3.77,1.01-7.54,1.62-11.3l.58.02Z" fill="#3c3c3b"/></g><g><path d="M169.3,157.8c3.62-2.89,6.84-6.27,9.07-10.12c2.26-3.81,3.55-8.1,3.24-12.23-.12-2.1-.54-4.59-.38-7.22.1-2.62.63-5.21,1.35-7.63c1.46-4.83,3.74-9.52,7.21-13.62c1.73-2.03,3.84-3.86,6.16-5.35c1.15-.74,2.34-1.38,3.57-1.96.62-.29,1.26-.56,1.96-.82.69-.26,1.47-.49,2.18-.65c1.43-.34,2.71-.53,3.96-.69s2.46-.29,3.67-.4c2.39-.21,4.67-.43,7.18-.56c1.25-.06,2.55-.1,3.96-.05c1.4.04,2.93.23,4.46.6.38.09.77.2,1.13.31.35.11.69.21,1.03.33.69.24,1.37.5,2.04.79c1.35.59,2.66,1.27,4,2.19c1.28.88,2.46,1.89,3.54,3c1.07,1.1,2.02,2.33,2.77,3.39.34.46.85,1.21,1.22,1.85.39.66.73,1.3,1.05,1.92.62,1.24,1.14,2.43,1.63,3.61.48,1.17.93,2.34,1.36,3.49l1.21,3.39c.76,2.21,1.64,4.54,2.28,7.41c1.18,5.27,1.22,10.95.67,15.97l-.2,1.83c-.08.64-.15,1.28-.25,1.93-.18,1.29-.41,2.57-.66,3.85-.52,2.55-1.2,5.07-1.97,7.49s-1.61,4.72-2.43,6.93c-.82,2.2-1.62,4.41-2.56,6.74-.93,2.32-2.04,4.8-3.43,7.16-.34.59-.69,1.17-1.06,1.74l-.55.85-.28.43-.36.51c-.95,1.33-1.87,2.39-2.76,3.38-1.78,1.97-3.5,3.66-5.22,5.35l-5.12,4.92c-3.39,3.22-6.75,6.47-10.44,9.74-1.84,1.63-3.85,3.29-5.82,4.79-1.98,1.51-3.98,2.97-6.06,4.35-1.05.69-2.1,1.36-3.21,2.03-1.08.64-2.08,1.24-3.18,1.87-2.18,1.24-4.46,2.44-6.83,3.52-2.38,1.08-4.79,2.05-7.42,2.87-2.63.81-5.27,1.39-7.81,1.81-5.1.84-9.98,1.18-14.85,1.4-4.87.2-9.74.22-14.61-.06-2.43-.13-4.9-.31-7.35-.57l-6.96-.73-13.86-1.38c-4.6-.43-9.19-.77-13.74-1.09-4.56-.32-9.09-.53-13.59-.56-4.51-.03-8.99.12-13.45.5-4.5.38-8.77,1.07-13.6,1.73-4.79.64-10.04,1.09-15.37.23-2.66-.43-5.3-1.18-7.78-2.27-2.48-1.11-4.79-2.48-6.84-4.13-2.07-1.63-3.9-3.47-5.56-5.44-1.64-1.97-3.12-4.15-4.28-6.46-1.19-2.3-2.07-4.75-2.68-7.19-.64-2.44-.94-4.88-1.21-7.23-.25-2.33-.55-4.66-.67-7.13-.12-2.44-.01-5.09.84-7.55.85-2.45,2.26-4.6,3.99-6.36c1.74-1.76,3.78-3.13,5.93-4.14l.42.74c-3.98,2.22-7.29,5.85-8.45,10.27-.59,2.19-.57,4.5-.32,6.78.26,2.29.7,4.58,1.1,6.88.79,4.58,1.93,9.1,4.27,13.08c2.28,3.98,5.52,7.41,9.23,10.1c1.86,1.34,3.88,2.46,6,3.3c2.13.83,4.36,1.39,6.64,1.66c4.56.57,9.19.02,13.76-.79c4.57-.84,9.19-1.74,13.85-2.28c4.66-.55,9.34-.86,14.02-.98c18.75-.48,37.39,1.94,55.94,3.03c4.64.15,9.3.12,13.94-.11c4.64-.24,9.28-.61,13.83-1.4c9.15-1.39,17.42-5.96,25.15-11.01c3.85-2.58,7.58-5.34,11.06-8.39c3.5-3.05,6.88-6.27,10.29-9.45c3.39-3.2,6.84-6.37,9.98-9.74.78-.85,1.53-1.71,2.18-2.62.65-.92,1.28-1.9,1.86-2.88c1.17-1.97,2.15-4.05,3.06-6.19.91-2.13,1.75-4.31,2.61-6.48.85-2.17,1.69-4.34,2.43-6.53c1.51-4.38,2.51-8.88,3.01-13.5.58-4.59.6-9.22-.3-13.73-.43-2.23-1.16-4.44-1.86-6.67s-1.41-4.43-2.23-6.6c-.83-2.16-1.7-4.29-3-6.15-1.26-1.92-2.76-3.62-4.6-4.94-1.82-1.3-3.94-2.26-6.11-2.87-2.17-.59-4.48-.65-6.79-.63-2.31.03-4.65.14-6.97.25-2.31.13-4.65.25-6.88.69-2.19.45-4.31,1.44-6.29,2.57-1.97,1.16-3.75,2.61-5.32,4.28-3.13,3.34-5.43,7.45-6.98,11.78-.77,2.17-1.34,4.41-1.54,6.68-.24,2.28-.01,4.58-.04,6.96-.02,4.8-1.83,9.44-4.53,13.32-2.73,3.89-6.32,7.07-10.22,9.7l-.46-.74Z" fill="#3c3c3b"/></g></g><g><g><g id="e4uvZcWND8F15" transform="translate(0 0.000001)"><path d="M118.11,188.12c3.5-2.27,6.86-4.74,10.06-7.38c3.17-2.68,6.19-5.53,8.99-8.58c2.77-3.08,5.34-6.32,7.68-9.71c2.31-3.42,4.4-6.97,6.23-10.65c1.85-3.67,3.35-7.5,4.6-11.4c1.24-3.9,2.25-7.87,2.84-11.91.62-4.03.92-8.1.88-12.17-.04-4.06-.45-8.12-1.18-12.1-1.42-7.98-4.43-15.62-8.56-22.55-4.13-6.88-9.76-12.82-16.37-17.36-6.61-4.53-14.14-7.73-22-9.47-7.87-1.71-16.05-2.1-24.09-1.09-8.05.96-15.94,3.3-23.31,6.79-7.4,3.46-14.17,8.17-19.83,14.08C38.4,80.5,33.86,87.51,30.94,95.17c-2.84,7.68-4.11,16.01-3.24,24.19.9,8.14,3.72,16.17,8.58,22.8.53.88,1.26,1.61,1.91,2.4l1,1.17c.33.39.66.79,1.05,1.12l2.24,2.11.56.53c.2.16.41.31.61.47l1.23.93l1.22.93.61.46.66.4L50,154.26c.43.28.9.49,1.36.7l1.39.65c.93.42,1.84.91,2.82,1.2l2.9,1.01c.97.33,1.98.51,2.97.77c1.97.57,4.02.74,6.04,1.07c4.08.32,8.2.37,12.24-.28c4.07-.47,8-1.68,11.84-3.01l2.8-1.23c.93-.41,1.88-.79,2.76-1.32c1.78-1,3.61-1.9,5.24-3.1l1.26-.85.63-.43.59-.48l2.34-1.92c.77-.65,1.45-1.4,2.18-2.1l1.08-1.06.98-1.15c2.69-3,4.83-6.45,6.54-10.05.39-.92.88-1.8,1.19-2.75l.98-2.83c.49-1.93,1.04-3.84,1.24-5.82.57-3.91.6-7.92-.18-11.77-.76-3.84-2.05-7.59-4.06-10.95-1.97-3.34-4.59-6.23-7.69-8.5-6.21-4.56-14.19-6.58-21.94-5.93-3.88.34-7.7,1.31-11.29,2.82-1.82.7-3.52,1.69-5.21,2.64-.8.54-1.62,1.05-2.39,1.62-.74.61-1.51,1.19-2.23,1.82-5.74,5.09-9.48,12.42-9.8,19.92-.18,3.74.51,7.47,2.01,10.85c1.51,3.43,3.85,6.21,6.82,8.33c3,2.04,6.57,3.29,10.26,3.66c3.7.33,7.47-.2,11.01-1.43.86-.37,1.75-.69,2.59-1.1l1.25-.66.63-.33.58-.38l1.16-.75l1.09-.86c.37-.27.72-.58,1.04-.9.33-.32.68-.62.99-.96c1.25-1.35,2.34-2.83,3.24-4.43.84-1.62,1.51-3.32,1.92-5.09.36-1.77.49-3.57.36-5.35-.19-1.77-.65-3.5-1.34-5.13-.77-1.63-1.7-3.06-2.94-4.27-1.22-1.21-2.69-2.2-4.31-2.9-3.26-1.37-7.05-1.58-10.59-.7-1.77.46-3.48,1.19-5.05,2.12-1.54.92-2.93,2.11-4.05,3.5-2.26,2.77-3.47,6.39-3.05,9.85.19,1.71.81,3.4,1.73,4.82.91,1.41,2.23,2.53,3.78,3.28c3.1,1.56,7.01,1.4,10.3-.08c1.67-.76,3.09-1.83,4.22-3.2.55-.69,1.01-1.44,1.38-2.24.34-.81.62-1.64.74-2.5.25-1.71,0-3.48-.8-5-.74-1.51-2.06-2.66-3.67-3.28-1.6-.65-3.46-.7-5.2-.27-1.74.47-3.4,1.36-4.52,2.72-1.15,1.33-1.81,3.09-1.72,4.8.04.86.27,1.69.67,2.45.37.75.95,1.37,1.66,1.83c2.84,1.95,7.72.59,8.98-2.83.33-.82.42-1.74.26-2.59-.18-.86-.59-1.67-1.24-2.23-1.32-1.15-3.47-1.27-5.1-.36-.81.43-1.49,1.11-1.88,1.95-.39.83-.47,1.81-.15,2.67.3.87,1.02,1.55,1.93,1.8.9.26,1.93.13,2.78-.35l.29.49c-.94.6-2.13.84-3.26.58-1.13-.23-2.16-1.08-2.61-2.17-.48-1.08-.45-2.36-.01-3.44.43-1.1,1.27-2.01,2.27-2.61c1.96-1.2,4.73-1.28,6.69.26c1.99,1.57,2.53,4.37,1.73,6.63-.74,2.31-2.75,4.07-4.95,4.83-2.22.8-4.85.72-7.01-.56-1.07-.62-2.01-1.55-2.63-2.64-.62-1.06-.99-2.28-1.1-3.51-.21-2.47.65-4.92,2.16-6.81.75-.95,1.67-1.77,2.69-2.4c1.01-.62,2.09-1.13,3.24-1.46c2.29-.64,4.81-.68,7.14.16c1.16.41,2.27,1.01,3.24,1.81.96.8,1.78,1.81,2.38,2.9c1.22,2.15,1.68,4.71,1.4,7.13-.12,1.22-.47,2.4-.91,3.53-.47,1.12-1.07,2.18-1.8,3.15-1.45,1.92-3.42,3.48-5.53,4.52-4.22,2.1-9.48,2.48-13.98.4-2.24-1.01-4.27-2.63-5.69-4.71-1.41-2.05-2.3-4.37-2.65-6.81-.7-4.87.86-9.84,3.8-13.6c1.47-1.89,3.28-3.5,5.3-4.76c2-1.23,4.15-2.19,6.43-2.82c4.55-1.21,9.53-1.07,14.03.73c2.24.92,4.34,2.25,6.11,3.95c1.79,1.68,3.21,3.78,4.22,5.94.98,2.2,1.62,4.55,1.89,6.94.21,2.39.06,4.79-.41,7.13-.5,2.32-1.35,4.55-2.43,6.64-1.13,2.07-2.51,3.98-4.09,5.71-.4.43-.83.82-1.25,1.23-.41.42-.85.81-1.31,1.16l-1.37,1.09-1.46.97-.73.48-.76.41-1.52.82c-1.03.51-2.11.93-3.17,1.38-4.33,1.59-9.03,2.2-13.67,1.79-4.63-.47-9.2-2.04-13.11-4.72-3.86-2.7-7.04-6.59-8.88-10.84-1.9-4.27-2.67-9.01-2.4-13.61.52-9.26,5.17-17.9,11.98-23.82.86-.73,1.77-1.41,2.65-2.11.92-.65,1.88-1.24,2.82-1.86c1.95-1.09,3.9-2.17,5.99-2.96c4.13-1.68,8.52-2.74,12.98-3.08c8.9-.62,18.16,1.73,25.35,7.25c3.59,2.73,6.61,6.22,8.81,10.14c2.21,3.88,3.61,8.18,4.37,12.54.79,4.37.67,8.86-.05,13.2-.29,2.19-.96,4.29-1.57,6.39l-1.17,3.07c-.37,1.03-.93,1.98-1.39,2.97-1.99,3.88-4.43,7.54-7.42,10.68l-1.09,1.21-1.19,1.11c-.81.72-1.56,1.5-2.41,2.18l-2.57,1.98-.64.49-.68.44-1.37.87c-1.78,1.23-3.73,2.14-5.63,3.13-.94.53-1.94.9-2.94,1.31l-2.98,1.21c-4.08,1.3-8.23,2.45-12.5,2.83-4.24.57-8.55.4-12.78-.04-2.1-.36-4.23-.58-6.28-1.2-1.03-.29-2.08-.49-3.08-.85l-3.01-1.1c-1.02-.32-1.96-.85-2.92-1.3l-1.44-.7c-.48-.23-.96-.46-1.41-.75l-2.73-1.67-.68-.42-.64-.48-1.27-.97-1.27-.97c-.21-.16-.43-.32-.63-.49l-.58-.55-2.32-2.21c-.4-.35-.75-.76-1.09-1.17l-1.03-1.22c-.67-.83-1.43-1.59-1.98-2.51-4.99-6.93-8.03-15.15-9-23.61-1.02-8.46.11-17.12,2.87-25.18c2.77-8.07,7.26-15.55,12.99-21.91C47.48,66.09,54.51,60.86,62.14,57c7.62-3.9,15.89-6.71,24.44-7.92c8.54-1.21,17.32-1.04,25.8.84c8.47,1.83,16.65,5.26,23.78,10.28c7.14,4.99,13.23,11.51,17.64,19.02c4.34,7.49,7.39,15.73,8.76,24.25.69,4.25,1.08,8.56.99,12.86-.08,4.3-.51,8.58-1.27,12.8-1.53,8.44-4.47,16.57-8.52,24.06-2.04,3.73-4.3,7.35-6.86,10.73-2.57,3.38-5.37,6.57-8.34,9.57-3.01,2.97-6.22,5.73-9.56,8.29-3.37,2.53-6.95,4.76-10.6,6.83l-.29-.49Z" fill="#3c3c3b"/></g></g></g>
<script><![CDATA[
!function(t,n){"object"==typeof exports&&"undefined"!=typeof module?module.exports=n():"function"==typeof __SVGATOR_DEFINE__&&__SVGATOR_DEFINE__.amd?__SVGATOR_DEFINE__(n):((t="undefined"!=typeof globalThis?globalThis:t||self).__SVGATOR_PLAYER__=t.__SVGATOR_PLAYER__||{},t.__SVGATOR_PLAYER__["5c7f360c"]=n())}(this,(function(){"use strict";function t(t,n){var e=Object.keys(t);if(Object.getOwnPropertySymbols){var r=Object.getOwnPropertySymbols(t);n&&(r=r.filter((function(n){return Object.getOwnPropertyDescriptor(t,n).enumerable}))),e.push.apply(e,r)}return e}function n(n){for(var e=1;e<arguments.length;e++){var r=null!=arguments[e]?arguments[e]:{};e%2?t(Object(r),!0).forEach((function(t){o(n,t,r[t])})):Object.getOwnPropertyDescriptors?Object.defineProperties(n,Object.getOwnPropertyDescriptors(r)):t(Object(r)).forEach((function(t){Object.defineProperty(n,t,Object.getOwnPropertyDescriptor(r,t))}))}return n}function e(t){return(e="function"==typeof Symbol&&"symbol"==typeof Symbol.iterator?function(t){return typeof t}:function(t){return t&&"function"==typeof Symbol&&t.constructor===Symbol&&t!==Symbol.prototype?"symbol":typeof t})(t)}function r(t,n){if(!(t instanceof n))throw new TypeError("Cannot call a class as a function")}function i(t,n){for(var e=0;e<n.length;e++){var r=n[e];r.enumerable=r.enumerable||!1,r.configurable=!0,"value"in r&&(r.writable=!0),Object.defineProperty(t,r.key,r)}}function u(t,n,e){return n&&i(t.prototype,n),e&&i(t,e),t}function o(t,n,e){return n in t?Object.defineProperty(t,n,{value:e,enumerable:!0,configurable:!0,writable:!0}):t[n]=e,t}function a(t){return(a=Object.setPrototypeOf?Object.getPrototypeOf:function(t){return t.__proto__||Object.getPrototypeOf(t)})(t)}function l(t,n){return(l=Object.setPrototypeOf||function(t,n){return t.__proto__=n,t})(t,n)}function s(){if("undefined"==typeof Reflect||!Reflect.construct)return!1;if(Reflect.construct.sham)return!1;if("function"==typeof Proxy)return!0;try{return Boolean.prototype.valueOf.call(Reflect.construct(Boolean,[],(function(){}))),!0}catch(t){return!1}}function f(t,n,e){return(f=s()?Reflect.construct:function(t,n,e){var r=[null];r.push.apply(r,n);var i=new(Function.bind.apply(t,r));return e&&l(i,e.prototype),i}).apply(null,arguments)}function c(t,n){if(n&&("object"==typeof n||"function"==typeof n))return n;if(void 0!==n)throw new TypeError("Derived constructors may only return object or undefined");return function(t){if(void 0===t)throw new ReferenceError("this hasn't been initialised - super() hasn't been called");return t}(t)}function h(t,n,e){return(h="undefined"!=typeof Reflect&&Reflect.get?Reflect.get:function(t,n,e){var r=function(t,n){for(;!Object.prototype.hasOwnProperty.call(t,n)&&null!==(t=a(t)););return t}(t,n);if(r){var i=Object.getOwnPropertyDescriptor(r,n);return i.get?i.get.call(e):i.value}})(t,n,e||t)}function v(t){return function(t){if(Array.isArray(t))return y(t)}(t)||function(t){if("undefined"!=typeof Symbol&&null!=t[Symbol.iterator]||null!=t["@@iterator"])return Array.from(t)}(t)||function(t,n){if(!t)return;if("string"==typeof t)return y(t,n);var e=Object.prototype.toString.call(t).slice(8,-1);"Object"===e&&t.constructor&&(e=t.constructor.name);if("Map"===e||"Set"===e)return Array.from(t);if("Arguments"===e||/^(?:Ui|I)nt(?:8|16|32)(?:Clamped)?Array$/.test(e))return y(t,n)}(t)||function(){throw new TypeError("Invalid attempt to spread non-iterable instance.\nIn order to be iterable, non-array objects must have a [Symbol.iterator]() method.")}()}function y(t,n){(null==n||n>t.length)&&(n=t.length);for(var e=0,r=new Array(n);e<n;e++)r[e]=t[e];return r}Number.isInteger||(Number.isInteger=function(t){return"number"==typeof t&&isFinite(t)&&Math.floor(t)===t}),Number.EPSILON||(Number.EPSILON=2220446049250313e-31);var g=p(Math.pow(10,-6));function p(t){var n=arguments.length>1&&void 0!==arguments[1]?arguments[1]:6;if(Number.isInteger(t))return t;var e=Math.pow(10,n);return Math.round((+t+Number.EPSILON)*e)/e}function d(t,n){var e=arguments.length>2&&void 0!==arguments[2]?arguments[2]:g;return Math.abs(t-n)<e}var m=Math.PI/180;function b(t){return t}function w(t,n,e){var r=1-e;return 3*e*r*(t*r+n*e)+e*e*e}function A(){var t=arguments.length>0&&void 0!==arguments[0]?arguments[0]:0,n=arguments.length>1&&void 0!==arguments[1]?arguments[1]:0,e=arguments.length>2&&void 0!==arguments[2]?arguments[2]:1,r=arguments.length>3&&void 0!==arguments[3]?arguments[3]:1;return t<0||t>1||e<0||e>1?null:d(t,n)&&d(e,r)?b:function(i){if(i<=0)return t>0?i*n/t:0===n&&e>0?i*r/e:0;if(i>=1)return e<1?1+(i-1)*(r-1)/(e-1):1===e&&t<1?1+(i-1)*(n-1)/(t-1):1;for(var u,o=0,a=1;o<a;){var l=w(t,e,u=(o+a)/2);if(d(i,l))break;l<i?o=u:a=u}return w(n,r,u)}}function _(){return 1}function x(t){return 1===t?1:0}function k(){var t=arguments.length>0&&void 0!==arguments[0]?arguments[0]:1,n=arguments.length>1&&void 0!==arguments[1]?arguments[1]:0;if(1===t){if(0===n)return x;if(1===n)return _}var e=1/t;return function(t){return t>=1?1:(t+=n*e)-t%e}}var S=Math.sin,O=Math.cos,j=Math.acos,E=Math.asin,M=Math.tan,P=Math.atan2,I=Math.PI/180,R=180/Math.PI,F=Math.sqrt,N=function(){function t(){var n=arguments.length>0&&void 0!==arguments[0]?arguments[0]:1,e=arguments.length>1&&void 0!==arguments[1]?arguments[1]:0,i=arguments.length>2&&void 0!==arguments[2]?arguments[2]:0,u=arguments.length>3&&void 0!==arguments[3]?arguments[3]:1,o=arguments.length>4&&void 0!==arguments[4]?arguments[4]:0,a=arguments.length>5&&void 0!==arguments[5]?arguments[5]:0;r(this,t),this.m=[n,e,i,u,o,a],this.i=null,this.w=null,this.s=null}return u(t,[{key:"determinant",get:function(){var t=this.m;return t[0]*t[3]-t[1]*t[2]}},{key:"isIdentity",get:function(){if(null===this.i){var t=this.m;this.i=1===t[0]&&0===t[1]&&0===t[2]&&1===t[3]&&0===t[4]&&0===t[5]}return this.i}},{key:"point",value:function(t,n){var e=this.m;return{x:e[0]*t+e[2]*n+e[4],y:e[1]*t+e[3]*n+e[5]}}},{key:"translateSelf",value:function(){var t=arguments.length>0&&void 0!==arguments[0]?arguments[0]:0,n=arguments.length>1&&void 0!==arguments[1]?arguments[1]:0;if(!t&&!n)return this;var e=this.m;return e[4]+=e[0]*t+e[2]*n,e[5]+=e[1]*t+e[3]*n,this.w=this.s=this.i=null,this}},{key:"rotateSelf",value:function(){var t=arguments.length>0&&void 0!==arguments[0]?arguments[0]:0;if(t%=360){var n=S(t*=I),e=O(t),r=this.m,i=r[0],u=r[1];r[0]=i*e+r[2]*n,r[1]=u*e+r[3]*n,r[2]=r[2]*e-i*n,r[3]=r[3]*e-u*n,this.w=this.s=this.i=null}return this}},{key:"scaleSelf",value:function(){var t=arguments.length>0&&void 0!==arguments[0]?arguments[0]:1,n=arguments.length>1&&void 0!==arguments[1]?arguments[1]:1;if(1!==t||1!==n){var e=this.m;e[0]*=t,e[1]*=t,e[2]*=n,e[3]*=n,this.w=this.s=this.i=null}return this}},{key:"skewSelf",value:function(t,n){if(n%=360,(t%=360)||n){var e=this.m,r=e[0],i=e[1],u=e[2],o=e[3];t&&(t=M(t*I),e[2]+=r*t,e[3]+=i*t),n&&(n=M(n*I),e[0]+=u*n,e[1]+=o*n),this.w=this.s=this.i=null}return this}},{key:"resetSelf",value:function(){var t=arguments.length>0&&void 0!==arguments[0]?arguments[0]:1,n=arguments.length>1&&void 0!==arguments[1]?arguments[1]:0,e=arguments.length>2&&void 0!==arguments[2]?arguments[2]:0,r=arguments.length>3&&void 0!==arguments[3]?arguments[3]:1,i=arguments.length>4&&void 0!==arguments[4]?arguments[4]:0,u=arguments.length>5&&void 0!==arguments[5]?arguments[5]:0,o=this.m;return o[0]=t,o[1]=n,o[2]=e,o[3]=r,o[4]=i,o[5]=u,this.w=this.s=this.i=null,this}},{key:"recomposeSelf",value:function(){var t=arguments.length>0&&void 0!==arguments[0]?arguments[0]:null,n=arguments.length>1&&void 0!==arguments[1]?arguments[1]:null,e=arguments.length>2&&void 0!==arguments[2]?arguments[2]:null,r=arguments.length>3&&void 0!==arguments[3]?arguments[3]:null,i=arguments.length>4&&void 0!==arguments[4]?arguments[4]:null;return this.isIdentity||this.resetSelf(),t&&(t.x||t.y)&&this.translateSelf(t.x,t.y),n&&this.rotateSelf(n),e&&(e.x&&this.skewSelf(e.x,0),e.y&&this.skewSelf(0,e.y)),!r||1===r.x&&1===r.y||this.scaleSelf(r.x,r.y),i&&(i.x||i.y)&&this.translateSelf(i.x,i.y),this}},{key:"decompose",value:function(){var t=arguments.length>0&&void 0!==arguments[0]?arguments[0]:0,n=arguments.length>1&&void 0!==arguments[1]?arguments[1]:0,e=this.m,r=e[0]*e[0]+e[1]*e[1],i=[[e[0],e[1]],[e[2],e[3]]],u=F(r);if(0===u)return{origin:{x:p(e[4]),y:p(e[5])},translate:{x:p(t),y:p(n)},scale:{x:0,y:0},skew:{x:0,y:0},rotate:0};i[0][0]/=u,i[0][1]/=u;var o=e[0]*e[3]-e[1]*e[2]<0;o&&(u=-u);var a=i[0][0]*i[1][0]+i[0][1]*i[1][1];i[1][0]-=i[0][0]*a,i[1][1]-=i[0][1]*a;var l=F(i[1][0]*i[1][0]+i[1][1]*i[1][1]);if(0===l)return{origin:{x:p(e[4]),y:p(e[5])},translate:{x:p(t),y:p(n)},scale:{x:p(u),y:0},skew:{x:0,y:0},rotate:0};i[1][0]/=l,i[1][1]/=l,a/=l;var s=0;return i[1][1]<0?(s=j(i[1][1])*R,i[0][1]<0&&(s=360-s)):s=E(i[0][1])*R,o&&(s=-s),a=P(a,F(i[0][0]*i[0][0]+i[0][1]*i[0][1]))*R,o&&(a=-a),{origin:{x:p(e[4]),y:p(e[5])},translate:{x:p(t),y:p(n)},scale:{x:p(u),y:p(l)},skew:{x:p(a),y:0},rotate:p(s)}}},{key:"clone",value:function(){var t=this.m;return new this.constructor(t[0],t[1],t[2],t[3],t[4],t[5])}},{key:"toString",value:function(){var t=arguments.length>0&&void 0!==arguments[0]?arguments[0]:" ";if(null===this.s){var n=this.m.map((function(t){return p(t)}));1===n[0]&&0===n[1]&&0===n[2]&&1===n[3]?this.s="translate("+n[4]+t+n[5]+")":this.s="matrix("+n.join(t)+")"}return this.s}}],[{key:"create",value:function(t){return t?Array.isArray(t)?f(this,v(t)):t instanceof this?t.clone():(new this).recomposeSelf(t.origin,t.rotate,t.skew,t.scale,t.translate):new this}}]),t}();function T(t,n,e){return t>=.5?e:n}function q(t,n,e){return 0===t||n===e?n:t*(e-n)+n}function B(t,n,e){var r=q(t,n,e);return r<=0?0:r}function D(t,n,e){var r=q(t,n,e);return r<=0?0:r>=1?1:r}function L(t,n,e){return 0===t?n:1===t?e:{x:q(t,n.x,e.x),y:q(t,n.y,e.y)}}function C(t,n,e){var r=function(t,n,e){return Math.round(q(t,n,e))}(t,n,e);return r<=0?0:r>=255?255:r}function V(t,n,e){return 0===t?n:1===t?e:{r:C(t,n.r,e.r),g:C(t,n.g,e.g),b:C(t,n.b,e.b),a:q(t,null==n.a?1:n.a,null==e.a?1:e.a)}}function G(t,n){for(var e=[],r=0;r<t;r++)e.push(n);return e}function z(t,n){if(--n<=0)return t;var e=(t=Object.assign([],t)).length;do{for(var r=0;r<e;r++)t.push(t[r])}while(--n>0);return t}var Y,$=function(){function t(n){r(this,t),this.list=n,this.length=n.length}return u(t,[{key:"setAttribute",value:function(t,n){for(var e=this.list,r=0;r<this.length;r++)e[r].setAttribute(t,n)}},{key:"removeAttribute",value:function(t){for(var n=this.list,e=0;e<this.length;e++)n[e].removeAttribute(t)}},{key:"style",value:function(t,n){for(var e=this.list,r=0;r<this.length;r++)e[r].style[t]=n}}]),t}(),U=/-./g,Q=function(t,n){return n.toUpperCase()};function H(t){return"function"==typeof t?t:T}function J(t){return t?"function"==typeof t?t:Array.isArray(t)?function(t){var n=arguments.length>1&&void 0!==arguments[1]?arguments[1]:b;if(!Array.isArray(t))return n;switch(t.length){case 1:return k(t[0])||n;case 2:return k(t[0],t[1])||n;case 4:return A(t[0],t[1],t[2],t[3])||n}return n}(t,null):function(t,n){var e=arguments.length>2&&void 0!==arguments[2]?arguments[2]:b;switch(t){case"linear":return b;case"steps":return k(n.steps||1,n.jump||0)||e;case"bezier":case"cubic-bezier":return A(n.x1||0,n.y1||0,n.x2||0,n.y2||0)||e}return e}(t.type,t.value,null):null}function Z(t,n,e){var r=arguments.length>3&&void 0!==arguments[3]&&arguments[3],i=n.length-1;if(t<=n[0].t)return r?[0,0,n[0].v]:n[0].v;if(t>=n[i].t)return r?[i,1,n[i].v]:n[i].v;var u,o=n[0],a=null;for(u=1;u<=i;u++){if(!(t>n[u].t)){a=n[u];break}o=n[u]}return null==a?r?[i,1,n[i].v]:n[i].v:o.t===a.t?r?[u,1,a.v]:a.v:(t=(t-o.t)/(a.t-o.t),o.e&&(t=o.e(t)),r?[u,t,e(t,o.v,a.v)]:e(t,o.v,a.v))}function K(t,n){var e=arguments.length>2&&void 0!==arguments[2]?arguments[2]:null;return t&&t.length?"function"!=typeof n?null:("function"!=typeof e&&(e=null),function(r){var i=Z(r,t,n);return null!=i&&e&&(i=e(i)),i}):null}function W(t,n){return t.t-n.t}function X(t,n,r,i,u){var o,a="@"===r[0],l="#"===r[0],s=Y[r],f=T;switch(a?(o=r.substr(1),r=o.replace(U,Q)):l&&(r=r.substr(1)),e(s)){case"function":if(f=s(i,u,Z,J,r,a,n,t),l)return f;break;case"string":f=K(i,H(s));break;case"object":if((f=K(i,H(s.i),s.f))&&"function"==typeof s.u)return s.u(n,f,r,a,t)}return f?function(t,n,e){if(arguments.length>3&&void 0!==arguments[3]&&arguments[3])return t instanceof $?function(r){return t.style(n,e(r))}:function(r){return t.style[n]=e(r)};if(Array.isArray(n)){var r=n.length;return function(i){var u=e(i);if(null==u)for(var o=0;o<r;o++)t[o].removeAttribute(n);else for(var a=0;a<r;a++)t[a].setAttribute(n,u)}}return function(r){var i=e(r);null==i?t.removeAttribute(n):t.setAttribute(n,i)}}(n,r,f,a):null}function tt(t,n,r,i){if(!i||"object"!==e(i))return null;var u=null,o=null;return Array.isArray(i)?o=function(t){if(!t||!t.length)return null;for(var n=0;n<t.length;n++)t[n].e&&(t[n].e=J(t[n].e));return t.sort(W)}(i):(o=i.keys,u=i.data||null),o?X(t,n,r,o,u):null}function nt(t,n,e){if(!e)return null;var r=[];for(var i in e)if(e.hasOwnProperty(i)){var u=tt(t,n,i,e[i]);u&&r.push(u)}return r.length?r:null}function et(t,n){if(!n.settings.duration||n.settings.duration<0)return null;var e,r,i,u,o,a=function(t,n){if(!n)return null;var e=[];if(Array.isArray(n))for(var r=n.length,i=0;i<r;i++){var u=n[i];if(2===u.length){var o=null;if("string"==typeof u[0])o=t.getElementById(u[0]);else if(Array.isArray(u[0])){o=[];for(var a=0;a<u[0].length;a++)if("string"==typeof u[0][a]){var l=t.getElementById(u[0][a]);l&&o.push(l)}o=o.length?1===o.length?o[0]:new $(o):null}if(o){var s=nt(t,o,u[1]);s&&(e=e.concat(s))}}}else for(var f in n)if(n.hasOwnProperty(f)){var c=t.getElementById(f);if(c){var h=nt(t,c,n[f]);h&&(e=e.concat(h))}}return e.length?e:null}(t,n.elements);return a?(e=a,r=n.settings,i=r.duration,u=e.length,o=null,function(t,n){var a=r.iterations||1/0,l=(r.alternate&&a%2==0)^r.direction>0?i:0,s=t%i,f=1+(t-s)/i;n*=r.direction,r.alternate&&f%2==0&&(n=-n);var c=!1;if(f>a)s=l,c=!0,-1===r.fill&&(s=r.direction>0?0:i);else if(n<0&&(s=i-s),s===o)return!1;o=s;for(var h=0;h<u;h++)e[h](s);return c}):null}function rt(t,n){if(Y=n,!t||!t.root||!Array.isArray(t.animations))return null;var e=function(t){for(var n=document.getElementsByTagName("svg"),e=0;e<n.length;e++)if(n[e].id===t.root&&!n[e].svgatorAnimation)return n[e].svgatorAnimation=!0,n[e];return null}(t);if(!e)return null;var r=t.animations.map((function(t){return et(e,t)})).filter((function(t){return!!t}));return r.length?{svg:e,animations:r,animationSettings:t.animationSettings,options:t.options||void 0}:null}function it(t){return+("0x"+(t.replace(/[^0-9a-fA-F]+/g,"")||27))}function ut(t,n,e){return!t||!e||n>t.length?t:t.substring(0,n)+ut(t.substring(n+1),e,e)}function ot(t){var n=arguments.length>1&&void 0!==arguments[1]?arguments[1]:27;return!t||t%n?t%n:ot(t/n,n)}function at(t,n,e){if(t&&t.length){var r=it(e),i=it(n),u=ot(r)+5,o=ut(t,ot(r,5),u);return o=o.replace(/\x7c$/g,"==").replace(/\x2f$/g,"="),o=function(t,n,e){var r=+("0x"+t.substring(0,4));t=t.substring(4);for(var i=n%r+e%27,u=[],o=0;o<t.length;o+=2)if("|"!==t[o]){var a=+("0x"+t[o]+t[o+1])-i;u.push(a)}else{var l=+("0x"+t.substring(o+1,o+1+4))-i;o+=3,u.push(l)}return String.fromCharCode.apply(String,u)}(o=(o=atob(o)).replace(/[\x41-\x5A]/g,""),i,r),o=JSON.parse(o)}}var lt=[{key:"alternate",def:!1},{key:"fill",def:1},{key:"iterations",def:0},{key:"direction",def:1},{key:"speed",def:1},{key:"fps",def:100}],st=function(){function t(n,e){var i=this,u=arguments.length>2&&void 0!==arguments[2]?arguments[2]:null;r(this,t),this._id=0,this._running=!1,this._rollingBack=!1,this._animations=n,this._settings=e,(!u||u<"2022-05-02")&&delete this._settings.speed,lt.forEach((function(t){i._settings[t.key]=i._settings[t.key]||t.def})),this.duration=e.duration,this.offset=e.offset||0,this.rollbackStartOffset=0}return u(t,[{key:"alternate",get:function(){return this._settings.alternate}},{key:"fill",get:function(){return this._settings.fill}},{key:"iterations",get:function(){return this._settings.iterations}},{key:"direction",get:function(){return this._settings.direction}},{key:"speed",get:function(){return this._settings.speed}},{key:"fps",get:function(){return this._settings.fps}},{key:"maxFiniteDuration",get:function(){return this.iterations>0?this.iterations*this.duration:this.duration}},{key:"_apply",value:function(t){for(var n=arguments.length>1&&void 0!==arguments[1]?arguments[1]:{},e=this._animations,r=e.length,i=0,u=0;u<r;u++)n[u]?i++:(n[u]=e[u](t,1),n[u]&&i++);return i}},{key:"_rollback",value:function(t){var n=this,e=1/0,r=null;this.rollbackStartOffset=t,this._rollingBack=!0,this._running=!0;this._id=window.requestAnimationFrame((function i(u){if(n._rollingBack){null==r&&(r=u);var o=Math.round(t-(u-r)*n.speed);if(o>n.duration&&e!==1/0){var a=!!n.alternate&&o/n.duration%2>1,l=o%n.duration;o=(l+=a?n.duration:0)||n.duration}var s=(n.fps?1e3/n.fps:0)*n.speed,f=Math.max(0,o);f<=e-s&&(n.offset=f,e=f,n._apply(f));var c=n.iterations>0&&-1===n.fill&&o>=n.maxFiniteDuration;(o<=0||n.offset<o||c)&&n.stop(),n._id=window.requestAnimationFrame(i)}}))}},{key:"_start",value:function(){var t=this,n=arguments.length>0&&void 0!==arguments[0]?arguments[0]:0,e=-1/0,r=null,i={};this._running=!0;var u=function u(o){null==r&&(r=o);var a=Math.round((o-r)*t.speed+n),l=(t.fps?1e3/t.fps:0)*t.speed;if(a>=e+l&&!t._rollingBack&&(t.offset=a,e=a,t._apply(a,i)===t._animations.length))return void t.pause(!0);t._id=window.requestAnimationFrame(u)};this._id=window.requestAnimationFrame(u)}},{key:"_pause",value:function(){this._id&&window.cancelAnimationFrame(this._id),this._running=!1}},{key:"play",value:function(){if(!this._running)return this._rollingBack?this._rollback(this.offset):this._start(this.offset)}},{key:"stop",value:function(){this._pause(),this.offset=0,this.rollbackStartOffset=0,this._rollingBack=!1,this._apply(0)}},{key:"reachedToEnd",value:function(){return this.iterations>0&&this.offset>=this.iterations*this.duration}},{key:"restart",value:function(){var t=arguments.length>0&&void 0!==arguments[0]&&arguments[0];this.stop(t),this.play(t)}},{key:"pause",value:function(){this._pause()}},{key:"reverse",value:function(){this.direction=-this.direction}}],[{key:"build",value:function(t,n){delete t.animationSettings,t.options=at(t.options,t.root,"5c7f360c"),t.animations.map((function(n){n.settings=at(n.s,t.root,"5c7f360c"),delete n.s,t.animationSettings||(t.animationSettings=n.settings)}));var e=t.version;if(!(t=rt(t,n)))return null;var r=t.options||{},i=new this(t.animations,t.animationSettings,e);return{el:t.svg,options:r,player:i}}},{key:"push",value:function(t){return this.build(t)}},{key:"init",value:function(){var t=this,n=window.__SVGATOR_PLAYER__&&window.__SVGATOR_PLAYER__["5c7f360c"];Array.isArray(n)&&n.splice(0).forEach((function(n){return t.build(n)}))}}]),t}();function ft(t){return p(t)+""}function ct(t){var n=arguments.length>1&&void 0!==arguments[1]?arguments[1]:" ";return t&&t.length?t.map(ft).join(n):""}function ht(t){if(!t)return"transparent";if(null==t.a||t.a>=1){var n=function(t){return 1===(t=parseInt(t).toString(16)).length?"0"+t:t},e=function(t){return t.charAt(0)===t.charAt(1)},r=n(t.r),i=n(t.g),u=n(t.b);return e(r)&&e(i)&&e(u)&&(r=r.charAt(0),i=i.charAt(0),u=u.charAt(0)),"#"+r+i+u}return"rgba("+t.r+","+t.g+","+t.b+","+t.a+")"}function vt(t){return t?"url(#"+t+")":"none"}!function(){for(var t=0,n=["ms","moz","webkit","o"],e=0;e<n.length&&!window.requestAnimationFrame;++e)window.requestAnimationFrame=window[n[e]+"RequestAnimationFrame"],window.cancelAnimationFrame=window[n[e]+"CancelAnimationFrame"]||window[n[e]+"CancelRequestAnimationFrame"];window.requestAnimationFrame||(window.requestAnimationFrame=function(n){var e=Date.now(),r=Math.max(0,16-(e-t)),i=window.setTimeout((function(){n(e+r)}),r);return t=e+r,i},window.cancelAnimationFrame=window.clearTimeout)}();var yt={f:null,i:function(t,n,e){return 0===t?n:1===t?e:{x:B(t,n.x,e.x),y:B(t,n.y,e.y)}},u:function(t,n){return function(e){var r=n(e);t.setAttribute("rx",ft(r.x)),t.setAttribute("ry",ft(r.y))}}},gt={f:null,i:function(t,n,e){return 0===t?n:1===t?e:{width:B(t,n.width,e.width),height:B(t,n.height,e.height)}},u:function(t,n){return function(e){var r=n(e);t.setAttribute("width",ft(r.width)),t.setAttribute("height",ft(r.height))}}};Object.freeze({M:2,L:2,Z:0,H:1,V:1,C:6,Q:4,T:2,S:4,A:7});var pt={},dt=null;function mt(t){var n=function(){if(dt)return dt;if("object"!==("undefined"==typeof document?"undefined":e(document))||!document.createElementNS)return{};var t=document.createElementNS("http://www.w3.org/2000/svg","svg");return t&&t.style?(t.style.position="absolute",t.style.opacity="0.01",t.style.zIndex="-9999",t.style.left="-9999px",t.style.width="1px",t.style.height="1px",dt={svg:t}):{}}().svg;if(!n)return function(t){return null};var r=document.createElementNS(n.namespaceURI,"path");r.setAttributeNS(null,"d",t),r.setAttributeNS(null,"fill","none"),r.setAttributeNS(null,"stroke","none"),n.appendChild(r);var i=r.getTotalLength();return function(t){var n=r.getPointAtLength(i*t);return{x:n.x,y:n.y}}}function bt(t){return pt[t]?pt[t]:pt[t]=mt(t)}function wt(t,n,e,r){if(!t||!r)return!1;var i=["M",t.x,t.y];if(n&&e&&(i.push("C"),i.push(n.x),i.push(n.y),i.push(e.x),i.push(e.y)),n?!e:e){var u=n||e;i.push("Q"),i.push(u.x),i.push(u.y)}return n||e||i.push("L"),i.push(r.x),i.push(r.y),i.join(" ")}function At(t,n,e,r){var i=arguments.length>4&&void 0!==arguments[4]?arguments[4]:1,u=wt(t,n,e,r),o=bt(u);try{return o(i)}catch(t){return null}}function _t(t,n,e){return t+(n-t)*e}function xt(t,n,e){var r=arguments.length>3&&void 0!==arguments[3]&&arguments[3],i={x:_t(t.x,n.x,e),y:_t(t.y,n.y,e)};return r&&(i.a=kt(t,n)),i}function kt(t,n){return Math.atan2(n.y-t.y,n.x-t.x)}function St(t,n,e,r){var i=1-r;return i*i*t+2*i*r*n+r*r*e}function Ot(t,n,e,r){return 2*(1-r)*(n-t)+2*r*(e-n)}function jt(t,n,e,r){var i=arguments.length>4&&void 0!==arguments[4]&&arguments[4],u=At(t,n,null,e,r);return u||(u={x:St(t.x,n.x,e.x,r),y:St(t.y,n.y,e.y,r)}),i&&(u.a=Et(t,n,e,r)),u}function Et(t,n,e,r){return Math.atan2(Ot(t.y,n.y,e.y,r),Ot(t.x,n.x,e.x,r))}function Mt(t,n,e,r,i){var u=i*i;return i*u*(r-t+3*(n-e))+3*u*(t+e-2*n)+3*i*(n-t)+t}function Pt(t,n,e,r,i){var u=1-i;return 3*(u*u*(n-t)+2*u*i*(e-n)+i*i*(r-e))}function It(t,n,e,r,i){var u=arguments.length>5&&void 0!==arguments[5]&&arguments[5],o=At(t,n,e,r,i);return o||(o={x:Mt(t.x,n.x,e.x,r.x,i),y:Mt(t.y,n.y,e.y,r.y,i)}),u&&(o.a=Rt(t,n,e,r,i)),o}function Rt(t,n,e,r,i){return Math.atan2(Pt(t.y,n.y,e.y,r.y,i),Pt(t.x,n.x,e.x,r.x,i))}function Ft(t,n,e){var r=arguments.length>3&&void 0!==arguments[3]&&arguments[3];if(Tt(n)){if(qt(e))return jt(n,e.start,e,t,r)}else if(Tt(e)){if(Bt(n))return jt(n,n.end,e,t,r)}else{if(Bt(n))return qt(e)?It(n,n.end,e.start,e,t,r):jt(n,n.end,e,t,r);if(qt(e))return jt(n,e.start,e,t,r)}return xt(n,e,t,r)}function Nt(t,n,e){var r=Ft(t,n,e,!0);return r.a=function(t){return arguments.length>1&&void 0!==arguments[1]&&arguments[1]?t+Math.PI:t}(r.a)/m,r}function Tt(t){return!t.type||"corner"===t.type}function qt(t){return null!=t.start&&!Tt(t)}function Bt(t){return null!=t.end&&!Tt(t)}var Dt=new N;var Lt={f:ft,i:q},Ct={f:ft,i:D};function Vt(t,n,e){return t.map((function(t){return function(t,n,e){var r=t.v;if(!r||"g"!==r.t||r.s||!r.v||!r.r)return t;var i=e.getElementById(r.r),u=i&&i.querySelectorAll("stop")||[];return r.s=r.v.map((function(t,n){var e=u[n]&&u[n].getAttribute("offset");return{c:t,o:e=p(parseInt(e)/100)}})),delete r.v,t}(t,0,e)}))}var Gt={gt:"gradientTransform",c:{x:"cx",y:"cy"},rd:"r",f:{x:"x1",y:"y1"},to:{x:"x2",y:"y2"}};function zt(t,n,r,i,u,o,a,l){return Vt(t,0,l),n=function(t,n,e){for(var r,i,u,o=t.length-1,a={},l=0;l<=o;l++)(r=t[l]).e&&(r.e=n(r.e)),r.v&&"g"===(i=r.v).t&&i.r&&(u=e.getElementById(i.r))&&(a[i.r]={e:u,s:u.querySelectorAll("stop")});return a}(t,i,l),function(i){var u=r(i,t,Yt);if(!u)return"none";if("c"===u.t)return ht(u.v);if("g"===u.t){if(!n[u.r])return vt(u.r);var o=n[u.r];return function(t,n){for(var e=t.s,r=e.length;r<n.length;r++){var i=e[e.length-1].cloneNode();i.id=Qt(i.id),t.e.appendChild(i),e=t.s=t.e.querySelectorAll("stop")}for(var u=0,o=e.length,a=n.length-1;u<o;u++)e[u].setAttribute("stop-color",ht(n[Math.min(u,a)].c)),e[u].setAttribute("offset",n[Math.min(u,a)].o)}(o,u.s),Object.keys(Gt).forEach((function(t){if(void 0!==u[t])if("object"!==e(Gt[t])){var n,r="gt"===t?(n=u[t],Array.isArray(n)?"matrix("+n.join(" ")+")":""):u[t],i=Gt[t];o.e.setAttribute(i,r)}else Object.keys(Gt[t]).forEach((function(n){if(void 0!==u[t][n]){var e=u[t][n],r=Gt[t][n];o.e.setAttribute(r,e)}}))})),vt(u.r)}return"none"}}function Yt(t,e,r){if(0===t)return e;if(1===t)return r;if(e&&r){var i=e.t;if(i===r.t)switch(e.t){case"c":return{t:i,v:V(t,e.v,r.v)};case"g":if(e.r===r.r){var u={t:i,s:$t(t,e.s,r.s),r:e.r};return e.gt&&r.gt&&(u.gt=function(t,n,e){var r=n.length;if(r!==e.length)return T(t,n,e);for(var i=new Array(r),u=0;u<r;u++)i[u]=q(t,n[u],e[u]);return i}(t,e.gt,r.gt)),e.c?(u.c=L(t,e.c,r.c),u.rd=B(t,e.rd,r.rd)):e.f&&(u.f=L(t,e.f,r.f),u.to=L(t,e.to,r.to)),u}}if("c"===e.t&&"g"===r.t||"c"===r.t&&"g"===e.t){var o="c"===e.t?e:r,a="g"===e.t?n({},e):n({},r),l=a.s.map((function(t){return{c:o.v,o:t.o}}));return a.s="c"===e.t?$t(t,l,a.s):$t(t,a.s,l),a}}return T(t,e,r)}function $t(t,n,e){if(n.length===e.length)return n.map((function(n,r){return Ut(t,n,e[r])}));for(var r=Math.max(n.length,e.length),i=[],u=0;u<r;u++){var o=Ut(t,n[Math.min(u,n.length-1)],e[Math.min(u,e.length-1)]);i.push(o)}return i}function Ut(t,n,e){return{o:D(t,n.o,e.o||0),c:V(t,n.c,e.c||{})}}function Qt(t){return t.replace(/-fill-([0-9]+)$/,(function(t,n){return"-fill-"+(+n+1)}))}var Ht={fill:zt,"fill-opacity":Ct,stroke:zt,"stroke-opacity":Ct,"stroke-width":Lt,"stroke-dashoffset":{f:ft,i:q},"stroke-dasharray":{f:function(t){var n=arguments.length>1&&void 0!==arguments[1]?arguments[1]:" ";return t&&t.length>0&&(t=t.map((function(t){return p(t,4)}))),ct(t,n)},i:function(t,n,e){var r,i,u,o=n.length,a=e.length;if(o!==a)if(0===o)n=G(o=a,0);else if(0===a)a=o,e=G(o,0);else{var l=(u=(r=o)*(i=a)/function(t,n){for(var e;n;)e=n,n=t%n,t=e;return t||1}(r,i))<0?-u:u;n=z(n,Math.floor(l/o)),e=z(e,Math.floor(l/a)),o=a=l}for(var s=[],f=0;f<o;f++)s.push(p(B(t,n[f],e[f])));return s}},opacity:Ct,transform:function(t,n,r,i){if(!(t=function(t,n){if(!t||"object"!==e(t))return null;var r=!1;for(var i in t)t.hasOwnProperty(i)&&(t[i]&&t[i].length?(t[i].forEach((function(t){t.e&&(t.e=n(t.e))})),r=!0):delete t[i]);return r?t:null}(t,i)))return null;var u=function(e,i,u){var o=arguments.length>3&&void 0!==arguments[3]?arguments[3]:null;return t[e]?r(i,t[e],u):n&&n[e]?n[e]:o};return n&&n.a&&t.o?function(n){var e=r(n,t.o,Nt);return Dt.recomposeSelf(e,u("r",n,q,0)+e.a,u("k",n,L),u("s",n,L),u("t",n,L)).toString()}:function(t){return Dt.recomposeSelf(u("o",t,Ft,null),u("r",t,q,0),u("k",t,L),u("s",t,L),u("t",t,L)).toString()}},r:Lt,"#size":gt,"#radius":yt,_:function(t,n){if(Array.isArray(t))for(var e=0;e<t.length;e++)this[t[e]]=n;else this[t]=n}},Jt=function(t){!function(t,n){if("function"!=typeof n&&null!==n)throw new TypeError("Super expression must either be null or a function");t.prototype=Object.create(n&&n.prototype,{constructor:{value:t,writable:!0,configurable:!0}}),n&&l(t,n)}(o,t);var n,e,i=(n=o,e=s(),function(){var t,r=a(n);if(e){var i=a(this).constructor;t=Reflect.construct(r,arguments,i)}else t=r.apply(this,arguments);return c(this,t)});function o(){return r(this,o),i.apply(this,arguments)}return u(o,null,[{key:"build",value:function(t){var n=h(a(o),"build",this).call(this,t,Ht);if(!n)return null;n.el,n.options,function(t,n,e){t.play()}(n.player)}}]),o}(st);return Jt.init(),Jt}));
(function(s,i,o,w,d,a,b){w[o]=w[o]||{};w[o][s]=w[o][s]||[];w[o][s].push(i);})('5c7f360c',{"root":"e4uvZcWND8F1","version":"2022-05-04","animations":[{"elements":{"e4uvZcWND8F15":{"transform":{"data":{"o":{"x":94.536308,"y":118.460062,"type":"corner"},"t":{"x":-94.536308,"y":-118.460061}},"keys":{"r":[{"t":0,"v":720},{"t":500,"v":630},{"t":1000,"v":540},{"t":1500,"v":450},{"t":2000,"v":360}]}}}},"s":"MPDA1ZGQ5ODBjMkVkM2EQwYmZkMmM3Y2RjYzgSwOTg5MDhlOGU4ZThhXODBjMmM3ZDBjM1RjMLWQyYzdjZGNjODBZOTHg4ZjhhODBjN2QyYzNMkMGJmZDJjN2NkY2NkPMTgwOTg4ZThhVDgwYCzRjN2NhY2E4MFQ5ODMhmOGE4MEliZmNhZDJCjM2QwY2NiZmQyYzM4VMDk4YzRiZmNhZDFjMGzhhODBNZDFjZWMzYzYNjMjgwOTg4ZjhhODBOjNGNlZDE4MDk4OGY4PZThlZGI/"}],"options":"MXDAxMDg4MmY4MDgxSTXZlN2Y4MTJmNDcyZjcR5N2M2ZTcxMmY4YQ|"},'__SVGATOR_PLAYER__',window,document)
]]></script>
</svg>
